<svg width="229" height="48" viewBox="0 0 229 48" fill="none" xmlns="http://www.w3.org/2000/svg">
<rect width="229" height="48" fill="#F5F5F5"/>
<path d="M24 45.5C35.8741 45.5 45.5 35.8741 45.5 24C45.5 12.1259 35.8741 2.5 24 2.5C12.1259 2.5 2.5 12.1259 2.5 24C2.5 35.8741 12.1259 45.5 24 45.5Z" fill="#E1F5FE"/>
<path d="M24 46C11.869 46 2 36.131 2 24C2 11.869 11.869 2 24 2C27.0808 2.00247 30.1269 2.65081 32.9417 3.9032C35.7566 5.15558 38.2775 6.98418 40.342 9.271C40.4308 9.3694 40.477 9.49905 40.4702 9.63146C40.4635 9.76386 40.4044 9.88815 40.306 9.977C40.2076 10.0658 40.0779 10.112 39.9455 10.1052C39.8131 10.0985 39.6888 10.0394 39.6 9.941C37.6292 7.75802 35.2227 6.01245 32.5357 4.81691C29.8487 3.62137 26.941 3.00242 24 3C12.421 3 3 12.42 3 24C3 35.58 12.421 45 24 45C35.579 45 45 35.58 45 24C45 21.701 44.631 19.44 43.902 17.28C43.8597 17.1544 43.869 17.0172 43.9279 16.8985C43.9868 16.7798 44.0904 16.6893 44.216 16.647C44.3416 16.6047 44.4788 16.614 44.5975 16.6729C44.7162 16.7318 44.8067 16.8354 44.849 16.961C45.6137 19.2289 46.0025 21.6066 46 24C46 36.131 36.131 46 24 46Z" fill="#2171A1"/>
<path d="M24 45C12.421 45 3 35.58 3 24C3 12.42 12.421 3 24 3C26.8955 3.00417 29.759 3.60509 32.4119 4.76525C35.0648 5.92541 37.4501 7.61991 39.419 9.743C39.5068 9.8407 39.5527 9.96904 39.5466 10.1003C39.5406 10.2315 39.4831 10.3551 39.3867 10.4443C39.2903 10.5335 39.1626 10.5812 39.0313 10.577C38.9 10.5728 38.7756 10.5172 38.685 10.422C36.8099 8.39993 34.5382 6.78607 32.0115 5.68113C29.4849 4.5762 26.7577 4.00391 24 4C12.972 4 4 12.972 4 24C4 35.028 12.972 44 24 44C35.028 44 44 35.028 44 24C44 21.97 43.697 19.969 43.101 18.052C43.0815 17.9893 43.0745 17.9234 43.0805 17.858C43.0865 17.7926 43.1053 17.729 43.1359 17.6709C43.1664 17.6127 43.2081 17.5612 43.2586 17.5192C43.309 17.4772 43.3673 17.4455 43.43 17.426C43.4927 17.4065 43.5586 17.3995 43.624 17.4055C43.6894 17.4115 43.753 17.4303 43.8111 17.4609C43.8693 17.4914 43.9208 17.5331 43.9628 17.5836C44.0048 17.634 44.0365 17.6923 44.056 17.755C44.683 19.768 45 21.869 45 24C45 35.58 35.579 45 24 45Z" fill="white"/>
<path d="M21.584 33.834C22.476 34.722 24.022 34.722 24.915 33.834L44.302 14.525C44.5233 14.3049 44.6989 14.0432 44.8187 13.7549C44.9385 13.4667 45.0002 13.1576 45.0002 12.8455C45.0002 12.5334 44.9385 12.2243 44.8187 11.9361C44.6989 11.6478 44.5233 11.3861 44.302 11.166C43.41 10.278 41.864 10.278 40.972 11.166L24.007 28.061C23.608 28.459 22.891 28.459 22.491 28.061L16.028 21.625C15.582 21.181 14.991 20.937 14.363 20.937C13.735 20.937 13.143 21.181 12.698 21.625C12.4767 21.8451 12.3011 22.1068 12.1813 22.3951C12.0614 22.6833 11.9998 22.9924 11.9998 23.3045C11.9998 23.6166 12.0614 23.9257 12.1813 24.2139C12.3011 24.5022 12.4767 24.7639 12.698 24.984L21.584 33.834Z" fill="#64FFDA"/>
<path d="M23.249 35.005C22.4948 35.0102 21.7692 34.7165 21.231 34.188L12.345 25.338C12.076 25.0719 11.8627 24.7549 11.7174 24.4056C11.5722 24.0562 11.4979 23.6814 11.499 23.303C11.499 22.534 11.8 21.812 12.345 21.27C13.422 20.196 15.299 20.194 16.38 21.27L22.843 27.706C23.048 27.91 23.449 27.911 23.653 27.706L40.619 10.81C41.713 9.721 43.56 9.721 44.654 10.81C44.9229 11.0759 45.1362 11.3927 45.2815 11.742C45.4267 12.0912 45.501 12.4658 45.5 12.844C45.5 13.613 45.199 14.335 44.654 14.877L25.268 34.188C24.7295 34.7165 24.0035 35.0103 23.249 35.005ZM14.363 21.437C14.1194 21.4365 13.8781 21.4841 13.653 21.5772C13.4278 21.6702 13.2232 21.8067 13.051 21.979C12.696 22.333 12.499 22.803 12.499 23.304C12.499 23.805 12.694 24.276 13.05 24.629L21.936 33.48C22.635 34.175 23.863 34.176 24.562 33.48L43.949 14.17C44.303 13.817 44.5 13.346 44.5 12.845C44.5 12.344 44.305 11.873 43.949 11.52C43.25 10.824 42.023 10.823 41.324 11.52L24.359 28.416C23.769 29.006 22.729 29.006 22.137 28.416L15.675 21.98C15.5031 21.8072 15.2986 21.6703 15.0734 21.5771C14.8482 21.4839 14.6067 21.4363 14.363 21.437Z" fill="#2171A1"/>
<path d="M57.3555 22.3594H67.8438V26.9688H57.3555V39H51.2422V10.6406H69.4844V15.2305H57.3555V22.3594ZM73.0391 9.60547H79.0352V15.0742H73.0391V9.60547ZM73.0391 18.2773H79.0352V39H73.0391V18.2773ZM90.4219 20.9531C92.2708 18.7917 94.6992 17.7109 97.707 17.7109C99.8945 17.7109 101.581 18.3555 102.766 19.6445C103.951 20.9206 104.543 22.7305 104.543 25.0742V39H98.5469V25.4062C98.5469 24.1823 98.306 23.2969 97.8242 22.75C97.3424 22.2031 96.5677 21.9297 95.5 21.9297C94.5365 21.9297 93.638 22.151 92.8047 22.5938C91.9714 23.0234 91.3008 23.6094 90.793 24.3516V39H84.7773V18.043H89.7773L90.4219 20.9531ZM122.863 38.1992C121.053 38.9414 119.322 39.3125 117.668 39.3125C113.059 39.3125 110.754 37.112 110.754 32.7109V22.2422H107.297V18.043H111.145L112.297 12.0469H116.711V18.043H122.434V22.2422H116.711V31.8711C116.711 32.9388 116.906 33.7005 117.297 34.1562C117.701 34.612 118.384 34.8398 119.348 34.8398C120.168 34.8398 121.047 34.6771 121.984 34.3516L122.863 38.1992ZM130.754 29.6445C131.066 33.2122 132.902 34.9961 136.262 34.9961C137.303 34.9961 138.352 34.8789 139.406 34.6445C140.461 34.3971 141.626 34.0065 142.902 33.4727L144.348 37.2031C141.171 38.6745 138.234 39.4036 135.539 39.3906C132.232 39.3906 129.634 38.4271 127.746 36.5C125.858 34.5729 124.914 31.8971 124.914 28.4727C124.914 25.0612 125.839 22.4049 127.688 20.5039C129.536 18.5898 132.128 17.6328 135.461 17.6328C141.724 17.6328 144.855 21.181 144.855 28.2773V29.6445H130.754ZM139.348 26.168C139.178 23.2513 137.896 21.793 135.5 21.793C134.172 21.793 133.124 22.1576 132.355 22.8867C131.6 23.6029 131.105 24.6966 130.871 26.168H139.348ZM148.957 8.80469H154.973V39H148.957V8.80469ZM169.602 39H162.922L155.363 27.3594L162.004 18.043H168.371L161.613 27.1641L169.602 39ZM176.613 29.6445C176.926 33.2122 178.762 34.9961 182.121 34.9961C183.163 34.9961 184.211 34.8789 185.266 34.6445C186.32 34.3971 187.486 34.0065 188.762 33.4727L190.207 37.2031C187.03 38.6745 184.094 39.4036 181.398 39.3906C178.091 39.3906 175.493 38.4271 173.605 36.5C171.717 34.5729 170.773 31.8971 170.773 28.4727C170.773 25.0612 171.698 22.4049 173.547 20.5039C175.396 18.5898 177.987 17.6328 181.32 17.6328C187.583 17.6328 190.715 21.181 190.715 28.2773V29.6445H176.613ZM185.207 26.168C185.038 23.2513 183.755 21.793 181.359 21.793C180.031 21.793 178.983 22.1576 178.215 22.8867C177.46 23.6029 176.965 24.6966 176.73 26.168H185.207ZM200.266 20.9531C201.581 18.7917 203.423 17.7109 205.793 17.7109C206.301 17.7109 206.73 17.7435 207.082 17.8086C207.447 17.8607 207.909 17.9648 208.469 18.1211L207.785 23.3555C206.665 22.9518 205.676 22.7565 204.816 22.7695C203.879 22.7695 203.085 22.9388 202.434 23.2773C201.783 23.6029 201.236 24.1237 200.793 24.8398V39H194.777V18.043H199.543L200.266 20.9531ZM219.348 17.6328C222.303 17.6328 224.569 18.362 226.145 19.8203C227.72 21.2786 228.508 23.3945 228.508 26.168V39H223.547L222.863 36.5195C222.004 37.431 221.034 38.1276 219.953 38.6094C218.885 39.0781 217.74 39.3125 216.516 39.3125C214.354 39.3125 212.635 38.7526 211.359 37.6328C210.096 36.513 209.465 35.0091 209.465 33.1211C209.465 30.9336 210.383 29.2279 212.219 28.0039C214.068 26.7799 216.646 26.168 219.953 26.168H222.512V25.6406C222.434 23.2188 221.06 22.0078 218.391 22.0078C217.479 22.0078 216.424 22.1445 215.227 22.418C214.029 22.6784 212.948 23.0169 211.984 23.4336L210.715 19.3906C212.095 18.8307 213.547 18.401 215.07 18.1016C216.594 17.7891 218.02 17.6328 219.348 17.6328ZM220.461 29.4492C218.755 29.4492 217.427 29.7422 216.477 30.3281C215.539 30.9141 215.07 31.7279 215.07 32.7695C215.07 33.6289 215.331 34.2865 215.852 34.7422C216.372 35.1849 217.108 35.4062 218.059 35.4062C218.918 35.4062 219.738 35.2174 220.52 34.8398C221.314 34.4622 221.978 33.9544 222.512 33.3164V29.4492H220.461Z" fill="black"/>
</svg>