<svg width="193" height="48" viewBox="0 0 193 48" fill="none" xmlns="http://www.w3.org/2000/svg">
<path d="M28.5 34.625C37.4056 34.625 44.625 27.4056 44.625 18.5C44.625 9.59441 37.4056 2.375 28.5 2.375C19.5944 2.375 12.375 9.59441 12.375 18.5C12.375 27.4056 19.5944 34.625 28.5 34.625Z" fill="#E1F5FE"/>
<path d="M28.5 35C19.4017 35 12 27.5982 12 18.5C12 9.40175 19.4017 2 28.5 2C30.8106 2.00185 33.0952 2.48811 35.2063 3.4274C37.3174 4.36668 39.2081 5.73813 40.7565 7.45325C40.8231 7.52705 40.8577 7.62429 40.8527 7.72359C40.8476 7.82289 40.8033 7.91611 40.7295 7.98275C40.6557 8.04939 40.5585 8.08398 40.4592 8.07891C40.3599 8.07385 40.2666 8.02955 40.2 7.95575C38.7219 6.31852 36.917 5.00933 34.9018 4.11268C32.8866 3.21602 30.7057 2.75181 28.5 2.75C19.8157 2.75 12.75 9.815 12.75 18.5C12.75 27.185 19.8157 34.25 28.5 34.25C37.1842 34.25 44.25 27.185 44.25 18.5C44.25 16.7757 43.9732 15.08 43.4265 13.46C43.3948 13.3658 43.4018 13.2629 43.4459 13.1739C43.4901 13.0848 43.5678 13.017 43.662 12.9852C43.7562 12.9535 43.8591 12.9605 43.9481 13.0047C44.0372 13.0488 44.105 13.1266 44.1367 13.2208C44.7103 14.9217 45.0019 16.705 45 18.5C45 27.5982 37.5982 35 28.5 35Z" fill="#2171A1"/>
<path d="M28.5 34.25C19.8157 34.25 12.75 27.185 12.75 18.5C12.75 9.815 19.8157 2.75 28.5 2.75C30.6716 2.75313 32.8193 3.20382 34.809 4.07394C36.7986 4.94406 38.5876 6.21493 40.0642 7.80725C40.1301 7.88052 40.1645 7.97678 40.16 8.07521C40.1554 8.17363 40.1123 8.26632 40.04 8.33323C39.9677 8.40014 39.8719 8.43589 39.7735 8.43276C39.675 8.42963 39.5817 8.38787 39.5137 8.3165C38.1074 6.79995 36.4036 5.58955 34.5086 4.76085C32.6137 3.93215 30.5682 3.50293 28.5 3.5C20.229 3.5 13.5 10.229 13.5 18.5C13.5 26.771 20.229 33.5 28.5 33.5C36.771 33.5 43.5 26.771 43.5 18.5C43.5 16.9775 43.2727 15.4768 42.8257 14.039C42.8111 13.992 42.8059 13.9425 42.8104 13.8935C42.8149 13.8444 42.829 13.7967 42.8519 13.7531C42.8748 13.7095 42.9061 13.6709 42.9439 13.6394C42.9818 13.6079 43.0255 13.5841 43.0725 13.5695C43.1195 13.5549 43.169 13.5497 43.218 13.5541C43.2671 13.5586 43.3147 13.5727 43.3583 13.5956C43.4019 13.6186 43.4406 13.6498 43.4721 13.6877C43.5036 13.7255 43.5274 13.7692 43.542 13.8162C44.0122 15.326 44.25 16.9017 44.25 18.5C44.25 27.185 37.1842 34.25 28.5 34.25Z" fill="white"/>
<path d="M26.688 25.8755C27.357 26.5415 28.5165 26.5415 29.1862 25.8755L43.7265 11.3937C43.8925 11.2286 44.0242 11.0324 44.114 10.8162C44.2039 10.6 44.2502 10.3682 44.2502 10.1341C44.2502 9.90002 44.2039 9.66822 44.114 9.45205C44.0242 9.23588 43.8925 9.03961 43.7265 8.8745C43.0575 8.2085 41.898 8.2085 41.229 8.8745L28.5052 21.5458C28.206 21.8443 27.6682 21.8443 27.3682 21.5458L22.521 16.7188C22.1865 16.3857 21.7432 16.2028 21.2722 16.2028C20.8012 16.2028 20.3572 16.3857 20.0235 16.7188C19.8575 16.8839 19.7258 17.0801 19.636 17.2963C19.5461 17.5125 19.4998 17.7443 19.4998 17.9784C19.4998 18.2125 19.5461 18.4443 19.636 18.6604C19.7258 18.8766 19.8575 19.0729 20.0235 19.238L26.688 25.8755Z" fill="#64FFDA"/>
<path d="M27.9367 26.7538C27.3711 26.7577 26.8269 26.5373 26.4232 26.141L19.7587 19.5035C19.557 19.3039 19.397 19.0662 19.2881 18.8042C19.1791 18.5421 19.1234 18.261 19.1242 17.9772C19.1242 17.4005 19.35 16.859 19.7587 16.4525C20.5665 15.647 21.9742 15.6455 22.785 16.4525L27.6322 21.2795C27.786 21.4325 28.0867 21.4333 28.2397 21.2795L40.9642 8.6075C41.7847 7.79075 43.17 7.79075 43.9905 8.6075C44.1922 8.80696 44.3522 9.04456 44.4611 9.30647C44.57 9.56837 44.6257 9.84934 44.625 10.133C44.625 10.7098 44.3992 11.2513 43.9905 11.6578L29.451 26.141C29.0471 26.5374 28.5026 26.7577 27.9367 26.7538ZM21.2722 16.5777C21.0895 16.5774 20.9086 16.6131 20.7397 16.6829C20.5708 16.7526 20.4174 16.855 20.2882 16.9842C20.022 17.2497 19.8742 17.6023 19.8742 17.978C19.8742 18.3538 20.0205 18.707 20.2875 18.9717L26.952 25.61C27.4762 26.1313 28.3972 26.132 28.9215 25.61L43.4617 11.1275C43.7272 10.8628 43.875 10.5095 43.875 10.1338C43.875 9.758 43.7287 9.40475 43.4617 9.14C42.9375 8.618 42.0172 8.61725 41.493 9.14L28.7692 21.812C28.3267 22.2545 27.5467 22.2545 27.1027 21.812L22.2562 16.985C22.1273 16.8554 21.9739 16.7527 21.805 16.6828C21.6361 16.6129 21.455 16.5772 21.2722 16.5777Z" fill="#2171A1"/>
<path d="M55.4844 15.6875H63.875V19.375H55.4844V29H50.5938V6.3125H65.1875V9.98438H55.4844V15.6875ZM68.0312 5.48438H72.8281V9.85938H68.0312V5.48438ZM68.0312 12.4219H72.8281V29H68.0312V12.4219ZM81.9375 14.5625C83.4167 12.8333 85.3594 11.9688 87.7656 11.9688C89.5156 11.9688 90.8646 12.4844 91.8125 13.5156C92.7604 14.5365 93.2344 15.9844 93.2344 17.8594V29H88.4375V18.125C88.4375 17.1458 88.2448 16.4375 87.8594 16C87.474 15.5625 86.8542 15.3438 86 15.3438C85.2292 15.3438 84.5104 15.5208 83.8438 15.875C83.1771 16.2188 82.6406 16.6875 82.2344 17.2812V29H77.4219V12.2344H81.4219L81.9375 14.5625ZM107.891 28.3594C106.443 28.9531 105.057 29.25 103.734 29.25C100.047 29.25 98.2031 27.4896 98.2031 23.9688V15.5938H95.4375V12.2344H98.5156L99.4375 7.4375H102.969V12.2344H107.547V15.5938H102.969V23.2969C102.969 24.151 103.125 24.7604 103.438 25.125C103.76 25.4896 104.307 25.6719 105.078 25.6719C105.734 25.6719 106.438 25.5417 107.188 25.2812L107.891 28.3594ZM114.203 21.5156C114.453 24.3698 115.922 25.7969 118.609 25.7969C119.443 25.7969 120.281 25.7031 121.125 25.5156C121.969 25.3177 122.901 25.0052 123.922 24.5781L125.078 27.5625C122.536 28.7396 120.188 29.3229 118.031 29.3125C115.385 29.3125 113.307 28.5417 111.797 27C110.286 25.4583 109.531 23.3177 109.531 20.5781C109.531 17.849 110.271 15.724 111.75 14.2031C113.229 12.6719 115.302 11.9062 117.969 11.9062C122.979 11.9062 125.484 14.7448 125.484 20.4219V21.5156H114.203ZM121.078 18.7344C120.943 16.401 119.917 15.2344 118 15.2344C116.938 15.2344 116.099 15.526 115.484 16.1094C114.88 16.6823 114.484 17.5573 114.297 18.7344H121.078ZM128.766 4.84375H133.578V29H128.766V4.84375ZM145.281 29H139.938L133.891 19.6875L139.203 12.2344H144.297L138.891 19.5312L145.281 29ZM150.891 21.5156C151.141 24.3698 152.609 25.7969 155.297 25.7969C156.13 25.7969 156.969 25.7031 157.812 25.5156C158.656 25.3177 159.589 25.0052 160.609 24.5781L161.766 27.5625C159.224 28.7396 156.875 29.3229 154.719 29.3125C152.073 29.3125 149.995 28.5417 148.484 27C146.974 25.4583 146.219 23.3177 146.219 20.5781C146.219 17.849 146.958 15.724 148.438 14.2031C149.917 12.6719 151.99 11.9062 154.656 11.9062C159.667 11.9062 162.172 14.7448 162.172 20.4219V21.5156H150.891ZM157.766 18.7344C157.63 16.401 156.604 15.2344 154.688 15.2344C153.625 15.2344 152.786 15.526 152.172 16.1094C151.568 16.6823 151.172 17.5573 150.984 18.7344H157.766ZM169.812 14.5625C170.865 12.8333 172.339 11.9688 174.234 11.9688C174.641 11.9688 174.984 11.9948 175.266 12.0469C175.557 12.0885 175.927 12.1719 176.375 12.2969L175.828 16.4844C174.932 16.1615 174.141 16.0052 173.453 16.0156C172.703 16.0156 172.068 16.151 171.547 16.4219C171.026 16.6823 170.589 17.099 170.234 17.6719V29H165.422V12.2344H169.234L169.812 14.5625ZM185.078 11.9062C187.443 11.9062 189.255 12.4896 190.516 13.6562C191.776 14.8229 192.406 16.5156 192.406 18.7344V29H188.438L187.891 27.0156C187.203 27.7448 186.427 28.3021 185.562 28.6875C184.708 29.0625 183.792 29.25 182.812 29.25C181.083 29.25 179.708 28.8021 178.688 27.9062C177.677 27.0104 177.172 25.8073 177.172 24.2969C177.172 22.5469 177.906 21.1823 179.375 20.2031C180.854 19.224 182.917 18.7344 185.562 18.7344H187.609V18.3125C187.547 16.375 186.448 15.4062 184.312 15.4062C183.583 15.4062 182.74 15.5156 181.781 15.7344C180.823 15.9427 179.958 16.2135 179.188 16.5469L178.172 13.3125C179.276 12.8646 180.438 12.5208 181.656 12.2812C182.875 12.0312 184.016 11.9062 185.078 11.9062ZM185.969 21.3594C184.604 21.3594 183.542 21.5938 182.781 22.0625C182.031 22.5312 181.656 23.1823 181.656 24.0156C181.656 24.7031 181.865 25.2292 182.281 25.5938C182.698 25.9479 183.286 26.125 184.047 26.125C184.734 26.125 185.391 25.974 186.016 25.6719C186.651 25.3698 187.182 24.9635 187.609 24.4531V21.3594H185.969Z" fill="#080808"/>
</svg>