<?xml version="1.0" encoding="utf-8"?>
<!-- Generator: Adobe Illustrator 19.2.1, SVG Export Plug-In . SVG Version: 6.00 Build 0)  -->
<svg version="1.1" id="layer" xmlns="http://www.w3.org/2000/svg" xmlns:xlink="http://www.w3.org/1999/xlink" x="0px" y="0px"
	 viewBox="0 0 652 652" style="enable-background:new 0 0 652 652;" xml:space="preserve">
<style type="text/css">
	.st0{fill:#6D6E71;}
	.st1{clip-path:url(#SVGID_2_);fill:url(#SVGID_3_);}
</style>
<g>
	<path class="st0" d="M66.5,442c0,26.1,16.3,43.3,42.4,43.3c26.1,0,42.4-17.1,42.4-43.3c0-26.1-16.3-44.9-42.4-44.9
		C82.8,397.2,66.5,415.9,66.5,442 M175.8,505.4c0,38.9-28.3,66.4-70.4,66.4c-24.5,0-44.9-6.3-63.1-23.1L58.9,528
		c12.8,13.6,27.2,20.9,46,20.9c36.4,0,46.5-22.8,46.5-44.6v-19h-0.8c-9.3,15.5-26.9,22.8-44.6,22.8c-37.8,0-65.8-28.5-65.6-66.1
		c0-38.1,25.6-67.7,65.6-67.7c17.4,0,35.3,7.9,44.9,21.8h0.6v-18.5h24.5V505.4z"/>
	<path class="st0" d="M340.6,506.5h-24.5v-19.9h-0.6c-6.3,13.6-22.6,23.1-42.4,23.1c-25,0-46.8-15-46.8-49.2v-82.9h24.5v76.2
		c0,24.2,13.9,33.2,29.4,33.2c20.4,0,35.9-13.1,35.9-43v-66.4h24.5V506.5z"/>
	<path class="st0" d="M459.7,409.9c-5.7-7.1-14.1-12.8-26.4-12.8c-11.4,0-21.5,5.2-21.5,14.4c0,15.5,22,17.7,32.9,20.1
		c21.2,5.2,37.5,13.3,37.5,37.5c0,29.1-26.7,40.5-52.2,40.5c-21.2,0-37-5.4-49.8-22.8l18.5-15.2c7.9,7.9,17.1,15.2,31.3,15.2
		c12.5,0,26.1-5.2,26.1-16.3c0-14.7-20.4-17.4-31-19.9c-20.9-5.2-39.4-12-39.4-36.7c0-26.9,24.7-39.7,49-39.7
		c17.1,0,34.8,6,44.1,21.2L459.7,409.9z"/>
	<path class="st0" d="M594.6,398.8h-35.1v58.5c0,14.4,0,29.7,18.5,29.7c5.7,0,12.5-0.8,17.4-3.8v22.3c-5.7,3.3-17.1,4.4-22,4.4
		c-37.8,0-38.4-23.1-38.4-43.8v-67.2h-28.3v-21.2h28.3v-36.2h24.5v36.2h35.1V398.8z"/>
</g>
<g>
	<defs>
		<path id="SVGID_1_" d="M375.3,241c-0.9,0.5-1.8-0.8-0.9-1.4c41.5-30.3,77.6-64.9,108.1-96.3c7-7.2,6.8-18.8-0.5-25.8l-7-6.7
			c-50.6,52.5-118.8,119.5-203.5,162.3c-0.9,0.5-1.7-0.9-0.9-1.5c38.1-25.8,76.1-59.3,109.7-92.1c7.3-7.1,7.4-18.8,0.2-26l-6.8-6.9
			C316.4,203.2,254,260.6,191.2,289.7c-0.9,0.4-1.6-0.9-0.8-1.5c37.5-24,77.7-61.1,98.1-80.5c7.3-7,7.6-18.6,0.6-25.9l-5.3-5.5
			c0,0-88.6,90.3-139.6,113.7c-49.7,22.8-84,22-102.2,18.5c-1.7-0.3-2.4,2.1-0.8,2.7c20.2,8,59.4,18.9,115.8,17.2
			c160.4-4.8,321-102.4,437.7-223.8c7.4-7.6,6.6-19.9-1.6-26.7l-7.2-6C584.8,73.3,500.1,170.5,375.3,241"/>
	</defs>
	<clipPath id="SVGID_2_">
		<use xlink:href="#SVGID_1_"  style="overflow:visible;"/>
	</clipPath>
	
		<linearGradient id="SVGID_3_" gradientUnits="userSpaceOnUse" x1="19.6142" y1="721.2623" x2="26.6688" y2="721.2623" gradientTransform="matrix(80.337 0 0 -80.337 -1537.5488 58144.9023)">
		<stop  offset="0" style="stop-color:#39B54A"/>
		<stop  offset="6.514436e-002" style="stop-color:#35B456"/>
		<stop  offset="0.5201" style="stop-color:#19B1A8"/>
		<stop  offset="0.8424" style="stop-color:#07AFDB"/>
		<stop  offset="1" style="stop-color:#00AEEF"/>
	</linearGradient>
	<rect x="39.7" y="71.8" class="st1" width="562.6" height="258.2"/>
</g>
</svg>
